HIERARCHY
ROOT Hips
{
	OFFSET 0.00000 0.00000 0.00000
	CHANNELS 6 Xposition Yposition Zposition Zrotation Yrotation Xrotation 
	JOINT LHipJoint
	{
		OFFSET 0 0 0
		CHANNELS 3 Zrotation Yrotation Xrotation
		JOINT LeftUpLeg
		{
			OFFSET 1.44960 -1.75505 0.85172
			CHANNELS 3 Zrotation Yrotation Xrotation
			JOINT LeftLeg
			{
				OFFSET 2.40573 -6.60971 0.00000
				CHANNELS 3 Zrotation Yrotation Xrotation
				JOINT LeftFoot
				{
					OFFSET 2.58773 -7.10974 0.00000
					CHANNELS 3 Zrotation Yrotation Xrotation
					JOINT LeftToeBase
					{
						OFFSET 0.18252 -0.50147 1.77316
						CHANNELS 3 Zrotation Yrotation Xrotation
						End Site
						{
							OFFSET 0.00000 -0.00000 0.92990
						}
					}
				}
			}
		}
	}
	JOINT RHipJoint
	{
		OFFSET 0 0 0
		CHANNELS 3 Zrotation Yrotation Xrotation
		JOINT RightUpLeg
		{
			OFFSET -1.40744 -1.75505 0.85172
			CHANNELS 3 Zrotation Yrotation Xrotation
			JOINT RightLeg
			{
				OFFSET -2.43714 -6.69600 0.00000
				CHANNELS 3 Zrotation Yrotation Xrotation
				JOINT RightFoot
				{
					OFFSET -2.51650 -6.91404 0.00000
					CHANNELS 3 Zrotation Yrotation Xrotation
					JOINT RightToeBase
					{
						OFFSET -0.25383 -0.69740 1.96384
						CHANNELS 3 Zrotation Yrotation Xrotation
						End Site
						{
							OFFSET -0.00000 -0.00000 1.04244
						}
					}
				}
			}
		}
	}
	JOINT LowerBack
	{
		OFFSET 0 0 0
		CHANNELS 3 Zrotation Yrotation Xrotation
		JOINT Spine
		{
			OFFSET 0.00579 2.14458 -0.24367
			CHANNELS 3 Zrotation Yrotation Xrotation
			JOINT Spine1
			{
				OFFSET 0.05899 2.16316 -0.04515
				CHANNELS 3 Zrotation Yrotation Xrotation
				JOINT Neck
				{
					OFFSET 0 0 0
					CHANNELS 3 Zrotation Yrotation Xrotation
					JOINT Neck1
					{
						OFFSET -0.01650 1.59577 0.24841
						CHANNELS 3 Zrotation Yrotation Xrotation
						JOINT Head
						{
							OFFSET -0.01016 1.63072 -0.17782
							CHANNELS 3 Zrotation Yrotation Xrotation
							End Site
							{
								OFFSET -0.00250 1.64111 -0.08717
							}
						}
					}
				}
				JOINT LeftShoulder
				{
					OFFSET 0 0 0
					CHANNELS 3 Zrotation Yrotation Xrotation
					JOINT LeftArm
					{
						OFFSET 3.17745 0.95174 -0.45729
						CHANNELS 3 Zrotation Yrotation Xrotation
						JOINT LeftForeArm
						{
							OFFSET 4.93485 -0.00000 0.00000
							CHANNELS 3 Zrotation Yrotation Xrotation
							JOINT LeftHand
							{
								OFFSET 3.41719 -0.00000 -0.00000
								CHANNELS 3 Zrotation Yrotation Xrotation
								JOINT LeftFingerBase
								{
									OFFSET 0 0 0
									CHANNELS 3 Zrotation Yrotation Xrotation
									JOINT LeftHandIndex1
									{
										OFFSET 0.62410 -0.00000 -0.00000
										CHANNELS 3 Zrotation Yrotation Xrotation
										End Site
										{
											OFFSET 0.50317 -0.00000 -0.00000
										}
									}
								}
								JOINT LThumb
								{
									OFFSET 0 0 0
									CHANNELS 3 Zrotation Yrotation Xrotation
									End Site
									{
										OFFSET 0.51085 -0.00000 0.51085
									}
								}
							}
						}
					}
				}
				JOINT RightShoulder
				{
					OFFSET 0 0 0
					CHANNELS 3 Zrotation Yrotation Xrotation
					JOINT RightArm
					{
						OFFSET -2.87924 1.13038 -0.75204
						CHANNELS 3 Zrotation Yrotation Xrotation
						JOINT RightForeArm
						{
							OFFSET -5.22034 -0.00000 0.00000
							CHANNELS 3 Zrotation Yrotation Xrotation
							JOINT RightHand
							{
								OFFSET -3.41809 -0.00000 -0.00000
								CHANNELS 3 Zrotation Yrotation Xrotation
								JOINT RightFingerBase
								{
									OFFSET 0 0 0
									CHANNELS 3 Zrotation Yrotation Xrotation
									JOINT RightHandIndex1
									{
										OFFSET -0.77534 -0.00000 -0.00000
										CHANNELS 3 Zrotation Yrotation Xrotation
										End Site
										{
											OFFSET -0.62510 -0.00000 -0.00000
										}
									}
								}
								JOINT RThumb
								{
									OFFSET 0 0 0
									CHANNELS 3 Zrotation Yrotation Xrotation
									End Site
									{
										OFFSET -0.63464 -0.00000 0.63464
									}
								}
							}
						}
					}
				}
			}
		}
	}
}
MOTION
Frames: 12
Frame Time: .0083333
-0.1613 17.5153 10.3945 0 0 0 0 0 0 -21 0 0 0 0 0 0 0 0 0 0 0 0 0 0 21 0 0 0 0 0 0 0 0 0 0 0 0 0 0 0 0 0 0 0 0 0 0 -16 0 0 21 0 0 11 0 0 0 -8 0 0 0 0 0 0 0 0 0 0 0 0 0 0 0 0 0 0 0 0 8 0 0 0 0 0 0 0 0 0 0 0 0 0 0 0 0 0
-0.1613 17.5153 10.3945 -5.8230 -6.8153 6.8518 0.0000 0.0000 0.0000 -11.1060 -4.5630 -3.0832 0.8856 5.9989 16.7812 0.6817 5.6680 -18.6765 0.0079 -0.5722 -1.5724 0.0000 0.0000 0.0000 22.0017 6.6352 0.6288 -0.1223 -2.2545 6.2097 0.2380 -12.0662 -13.4256 -0.1140 -2.1768 5.9946 -1.7490 -4.0254 -2.6594 6.1127 -5.3844 -1.7414 7.1475 -2.6986 0.4453 -10.2050 -11.4168 -2.4341 5.2324 -16.7032 27.4424 1.7539 -8.3411 10.5129 -0.0000 0.0000 0.0000 -91.9848 3.6179 17.9682 16.7453 -26.5207 -3.9729 -0.0000 -0.0000 5.0069 1.7077 44.6279 1.1999 -7.1250 0.0000 -0.0000 -51.2330 67.9746 -31.2936 -0.0000 0.0000 0.0000 79.5541 -4.7791 18.5096 -15.5534 24.9114 -3.4557 0.0000 -0.0000 -22.8553 -19.4815 18.1864 -6.3005 7.1250 -0.0000 -0.0000 5.6178 -10.8399 4.4832
-0.1603 17.5154 10.3978 -5.8100 -6.6750 6.9267 0.0000 0.0000 0.0000 -11.1108 -4.6328 -3.1911 0.8890 6.0101 16.8137 0.4235 6.8017 -16.6388 0.1347 2.3658 6.5177 0.0000 0.0000 0.0000 21.9930 6.4959 0.6071 -0.1158 -2.1938 6.0414 0.2513 -12.2051 -13.4347 -0.1288 -2.3138 6.3737 -1.6365 -4.0458 -2.6065 6.0643 -5.4047 -1.9219 7.0434 -2.7001 0.2167 -10.4502 -11.5691 -2.1500 5.4624 -16.9038 26.6721 1.8747 -8.4496 10.2382 -0.0000 0.0000 0.0000 -91.8880 3.9090 18.3960 16.6255 -26.3615 -3.9196 -0.0000 -0.0000 4.8542 2.5235 44.8096 1.7790 -7.1250 0.0000 -0.0000 -50.8625 68.3472 -31.4176 -0.0000 0.0000 0.0000 79.8348 -4.5998 16.9202 -15.1037 24.2904 -3.2685 0.0000 -0.0000 -21.3675 -19.2455 18.2429 -6.2373 7.1250 -0.0000 -0.0000 5.7756 -10.8107 4.6139
-0.1724 17.5141 10.4067 -6.0147 -6.7655 6.9524 0.0000 0.0000 0.0000 -10.8492 -4.5607 -3.1593 0.8854 5.9981 16.7790 0.4127 7.0072 -16.6887 0.1121 2.1591 5.9454 0.0000 0.0000 0.0000 22.2915 6.6100 0.6432 -0.1175 -2.2097 6.0854 0.2520 -12.1771 -13.3683 -0.1168 -2.2036 6.0688 -1.4677 -4.0111 -2.5904 6.0569 -5.3577 -1.9947 6.9466 -2.6734 0.1102 -10.6302 -11.7554 -2.0172 5.5461 -17.1158 25.9973 1.9222 -8.5654 10.0120 -0.0000 0.0000 0.0000 -91.9086 3.9971 17.8662 16.4633 -26.1448 -3.8478 -0.0000 -0.0000 5.6830 1.4874 44.7233 1.0468 -7.1250 0.0000 -0.0000 -51.6162 67.9635 -31.5625 -0.0000 0.0000 0.0000 80.1063 -4.8374 16.0644 -14.9251 24.0416 -3.1954 0.0000 -0.0000 -20.4628 -19.2622 17.9282 -6.1398 7.1250 -0.0000 -0.0000 5.7476 -11.1359 4.5529
-0.1758 17.5155 10.4061 -5.8581 -6.6312 6.9465 0.0000 0.0000 0.0000 -10.9860 -4.5728 -3.2099 0.8832 5.9908 16.7577 0.4208 6.7576 -16.5671 0.1305 2.3283 6.4139 0.0000 0.0000 0.0000 22.1361 6.4470 0.6460 -0.1133 -2.1705 5.9772 0.2439 -12.1549 -13.4817 -0.1411 -2.4208 6.6702 -1.4579 -3.9815 -2.5500 5.8577 -5.3134 -2.0294 6.7366 -2.6478 0.0262 -10.6345 -12.0419 -2.2201 5.6214 -17.4736 25.5233 1.8950 -8.7197 9.9188 0.0000 0.0000 0.0000 -91.6735 3.9111 17.9433 16.2593 -25.8710 -3.7584 -0.0000 -0.0000 5.9688 1.3573 44.4451 0.9505 -7.1250 0.0000 -0.0000 -51.1915 67.7508 -31.0238 0.0000 0.0000 0.0000 80.3614 -4.7957 15.9286 -14.7717 23.8272 -3.1331 0.0000 -0.0000 -21.4659 -19.6544 17.6610 -6.1842 7.1250 -0.0000 -0.0000 5.4750 -11.3658 4.3089
-0.1824 17.5178 10.4173 -5.8562 -6.7177 6.9956 0.0000 0.0000 0.0000 -10.9787 -4.5921 -3.2285 0.8818 5.9863 16.7447 0.6917 5.5797 -18.7188 0.0233 -0.9864 -2.7115 0.0000 0.0000 0.0000 22.1575 6.5189 0.7091 -0.1093 -2.1320 5.8707 0.2533 -12.1835 -13.3552 -0.1209 -2.2415 6.1734 -1.4200 -3.8783 -2.7199 5.8033 -5.1763 -2.0571 6.6523 -2.5789 0.0667 -10.5928 -12.0538 -1.9908 6.0554 -17.5277 24.5905 2.0630 -8.7175 9.5820 0.0000 -0.0000 0.0000 -91.5664 3.9484 18.4060 16.0331 -25.5655 -3.6602 -0.0000 -0.0000 6.0202 1.3598 44.3812 0.9512 -7.1250 0.0000 -0.0000 -51.0665 67.7120 -30.8914 0.0000 -0.0000 0.0000 80.3869 -4.7527 15.6891 -14.4826 23.4204 -3.0173 0.0000 -0.0000 -21.6565 -19.9043 17.4006 -6.1799 7.1250 -0.0000 -0.0000 5.2959 -11.6067 4.1403
-0.1718 17.5166 10.4291 -5.8474 -6.4640 7.0086 0.0000 0.0000 0.0000 -11.0063 -4.7016 -3.2076 0.8830 5.9903 16.7564 0.6960 5.4857 -18.6969 0.0178 -0.8615 -2.3679 0.0000 0.0000 0.0000 22.0850 6.2397 0.7261 -0.1063 -2.1025 5.7891 0.2519 -12.2323 -13.4759 -0.1490 -2.4871 6.8539 -1.0696 -3.9364 -2.8121 5.6561 -5.2578 -2.1061 6.2897 -2.6196 0.0332 -10.7321 -12.1389 -1.5212 6.3932 -17.6572 23.5903 2.2308 -8.7854 9.2005 -0.0000 0.0000 0.0000 -91.3890 4.1384 18.8306 15.9118 -25.4008 -3.6080 -0.0000 -0.0000 5.9523 1.3676 44.5899 0.9602 -7.1250 0.0000 -0.0000 -51.4627 67.8435 -31.3212 -0.0000 0.0000 0.0000 80.5566 -4.8318 15.1833 -14.2805 23.1344 -2.9374 0.0000 -0.0000 -21.5444 -19.7060 17.9780 -6.3084 7.1250 -0.0000 -0.0000 5.4587 -11.0288 4.3338
-0.1811 17.5157 10.4319 -5.8948 -6.5773 7.0337 0.0000 0.0000 0.0000 -10.9383 -4.6448 -3.1987 0.8764 5.9684 16.6926 0.6975 5.5444 -18.7548 0.0197 -0.9073 -2.4937 0.0000 0.0000 0.0000 22.1904 6.3648 0.7402 -0.1040 -2.0792 5.7244 0.2674 -12.2728 -13.2529 -0.1138 -2.1747 5.9887 -0.9910 -3.9034 -2.7296 5.5460 -5.2093 -2.1863 6.1414 -2.5914 -0.1184 -11.0462 -12.2974 -1.4758 6.8473 -17.9103 23.0197 2.4039 -8.8973 9.0928 -0.0000 0.0000 0.0000 -91.1756 4.2662 18.9027 15.7946 -25.2413 -3.5579 -0.0000 -0.0000 5.9316 2.2966 43.8046 1.5902 -7.1250 0.0000 -0.0000 -49.1240 67.6416 -29.4212 -0.0000 0.0000 0.0000 80.7314 -4.9991 15.1716 -14.1615 22.9651 -2.8908 0.0000 -0.0000 -21.5603 -19.8014 17.5584 -6.1991 7.1250 -0.0000 -0.0000 5.3724 -11.4547 4.2175
-0.1823 17.5136 10.4324 -5.9814 -6.5156 7.0643 0.0000 0.0000 0.0000 -10.8104 -4.6896 -3.2008 0.8737 5.9595 16.6671 0.6946 5.4816 -18.6793 0.0194 -0.9001 -2.4740 0.0000 0.0000 0.0000 22.3093 6.2940 0.7936 -0.1033 -2.0728 5.7068 0.2609 -12.2587 -13.3526 -0.1257 -2.2852 6.2945 -0.7390 -3.8358 -2.7514 5.4492 -5.1234 -2.1572 5.8981 -2.5500 -0.1164 -10.8604 -12.4599 -1.7892 6.8237 -18.0693 22.5739 2.3361 -8.9512 8.9883 -0.0000 0.0000 0.0000 -91.0501 4.0865 19.0328 15.6826 -25.0884 -3.5103 -0.0000 -0.0000 6.4205 1.1436 44.6210 0.8033 -7.1250 0.0000 -0.0000 -51.7222 67.7918 -31.4554 -0.0000 0.0000 0.0000 80.9654 -4.9134 14.3697 -13.8665 22.5436 -2.7767 0.0000 -0.0000 -21.2032 -19.7825 18.1698 -6.3995 7.1250 -0.0000 -0.0000 5.4195 -10.8191 4.3258
-0.1785 17.5160 10.4524 -5.7583 -6.4749 7.0530 0.0000 0.0000 0.0000 -11.0888 -4.7686 -3.0471 0.8630 5.9239 16.5636 0.7136 5.3825 -18.8093 0.0040 -0.4104 -1.1277 0.0000 0.0000 0.0000 22.0033 6.2579 0.6834 -0.1107 -2.1450 5.9066 0.2431 -12.1162 -13.4235 -0.1028 -2.0671 5.6912 -0.7641 -3.8213 -2.9288 5.2942 -5.1026 -2.2257 5.7405 -2.5382 -0.1021 -11.0141 -12.5569 -1.4652 7.0250 -18.1918 21.8334 2.4452 -9.0228 8.7216 -0.0000 -0.0000 0.0000 -90.9783 4.2980 19.4112 15.6495 -25.0432 -3.4963 -0.0000 -0.0000 6.1368 1.1781 44.6962 0.8287 -7.1250 0.0000 -0.0000 -51.8380 67.8488 -31.6018 -0.0000 -0.0000 0.0000 81.0608 -5.1051 14.0135 -13.6830 22.2798 -2.7068 0.0000 -0.0000 -21.2386 -19.8828 17.7929 -6.3064 7.1250 -0.0000 -0.0000 5.3319 -11.1997 4.2135
-0.1744 17.5176 10.4413 -5.7257 -6.2466 7.1763 0.0000 0.0000 0.0000 -11.1016 -5.0773 -3.1107 0.8497 5.8790 16.4338 0.6821 5.4943 -18.5560 0.0009 -0.1907 -0.5241 0.0000 0.0000 0.0000 21.9473 6.1306 0.3667 -0.1175 -2.2100 6.0865 0.2440 -12.1718 -13.5109 -0.1280 -2.3064 6.3533 -0.7001 -3.9287 -2.7486 5.2656 -5.2382 -2.3671 5.6889 -2.6011 -0.3425 -11.1067 -12.5977 -1.4277 7.2071 -18.2199 21.2026 2.5285 -9.0359 8.5282 -0.0000 0.0000 0.0000 -91.0560 4.5568 19.1389 15.7557 -25.1883 -3.5414 -0.0000 -0.0000 6.6680 0.4500 44.8967 0.3176 -7.1250 0.0000 -0.0000 -52.8716 67.7400 -32.2451 -0.0000 0.0000 0.0000 81.0761 -5.0071 13.8265 -13.4041 21.8764 -2.6019 0.0000 -0.0000 -20.9299 -19.9830 17.4494 -6.2230 7.1250 -0.0000 -0.0000 5.2465 -11.5460 4.1079
-0.1695 17.5198 10.4523 -5.4387 -6.1467 7.2109 0.0000 0.0000 0.0000 -11.4466 -5.0034 -3.0854 0.8332 5.8232 16.2722 0.6824 5.4305 -18.5149 0.0070 -0.5389 -1.4807 0.0000 0.0000 0.0000 21.5662 6.0514 0.1797 -0.1270 -2.2974 6.3283 0.2194 -12.0111 -13.6735 -0.1018 -2.0580 5.6658 -0.7857 -3.9101 -2.8226 5.1144 -5.2085 -2.4553 5.5787 -2.5831 -0.4017 -11.3238 -12.6162 -1.5283 7.7536 -18.2874 20.6943 2.7272 -9.0416 8.4542 -0.0000 0.0000 0.0000 -91.1170 4.7157 19.2988 15.6955 -25.1060 -3.5158 -0.0000 -0.0000 6.6963 0.7556 44.5230 0.5298 -7.1250 0.0000 -0.0000 -51.8777 67.6094 -31.3716 -0.0000 0.0000 0.0000 81.2376 -5.1212 12.9312 -13.2506 21.6533 -2.5450 0.0000 -0.0000 -20.1662 -19.8891 17.7205 -6.2839 7.1250 -0.0000 -0.0000 5.3236 -11.2745 4.1987
